<svg width="30" height="30" viewBox="0 0 30 30" fill="none" xmlns="http://www.w3.org/2000/svg">
<path d="M15 3C12.6266 3 10.3065 3.70379 8.33314 5.02236C6.35977 6.34094 4.8217 8.2151 3.91345 10.4078C3.0052 12.6005 2.76756 15.0133 3.23058 17.3411C3.6936 19.6688 4.83649 21.807 6.51472 23.4853C8.19296 25.1635 10.3312 26.3064 12.6589 26.7694C14.9867 27.2325 17.3995 26.9948 19.5922 26.0865C21.7849 25.1783 23.6591 23.6402 24.9776 21.6669C26.2962 19.6935 27 17.3734 27 15C27 11.8174 25.7357 8.76514 23.4853 6.51472C21.2349 4.26428 18.1826 3 15 3ZM15 25.1539C12.9917 25.1539 11.0286 24.5583 9.35882 23.4426C7.68904 22.3269 6.3876 20.7411 5.61908 18.8857C4.85055 17.0304 4.64948 14.9887 5.04126 13.0191C5.43305 11.0494 6.40011 9.2402 7.82015 7.82015C9.2402 6.4001 11.0495 5.43305 13.0191 5.04126C14.9887 4.64947 17.0304 4.85055 18.8857 5.61907C20.7411 6.38759 22.3269 7.68903 23.4426 9.35882C24.5583 11.0286 25.1539 12.9917 25.1539 15C25.1539 17.6929 24.084 20.2756 22.1799 22.1799C20.2756 24.084 17.6929 25.1539 15 25.1539Z" fill="#828282"/>
<path d="M10.1913 14.7596C10.2771 14.8461 10.3792 14.9148 10.4917 14.9616C10.6041 15.0085 10.7248 15.0326 10.8467 15.0326C10.9685 15.0326 11.0892 15.0085 11.2016 14.9616C11.3141 14.9148 11.4162 14.8461 11.502 14.7596L13.6713 12.5904C14.0789 12.1769 14.3274 11.6328 14.3732 11.0541C14.4189 10.4753 14.2587 9.89892 13.9211 9.42666C13.5834 8.95435 13.0899 8.61644 12.5274 8.47244C11.9649 8.32844 11.3697 8.38766 10.8467 8.63961C10.3228 8.37208 9.7203 8.30155 9.14881 8.4408C8.57731 8.58005 8.07478 8.91987 7.73268 9.39835C7.39058 9.87683 7.23161 10.4623 7.28472 11.0481C7.33782 11.6339 7.59947 12.1812 8.02203 12.5904L10.1913 14.7596ZM9.32357 10.3842C9.3796 10.3256 9.44695 10.2789 9.52149 10.247C9.59609 10.2151 9.67632 10.1987 9.75743 10.1987C9.83854 10.1987 9.91877 10.2151 9.99336 10.247C10.0679 10.2789 10.1353 10.3256 10.1913 10.3842C10.2771 10.4707 10.3792 10.5394 10.4917 10.5863C10.6041 10.6331 10.7248 10.6572 10.8467 10.6572C10.9685 10.6572 11.0892 10.6331 11.2016 10.5863C11.3141 10.5394 11.4162 10.4707 11.502 10.3842C11.5587 10.3267 11.6262 10.2811 11.7007 10.2499C11.7752 10.2187 11.8552 10.2027 11.9359 10.2027C12.0166 10.2027 12.0965 10.2187 12.171 10.2499C12.2455 10.2811 12.313 10.3267 12.3698 10.3842C12.4284 10.4402 12.4751 10.5075 12.5069 10.5821C12.5388 10.6567 12.5553 10.737 12.5553 10.8181C12.5553 10.8991 12.5388 10.9794 12.5069 11.054C12.4751 11.1286 12.4284 11.1959 12.3698 11.2519L10.8467 12.8027L9.32357 11.3073C9.26494 11.2512 9.21826 11.184 9.18637 11.1094C9.15449 11.0348 9.13803 10.9545 9.13803 10.8734C9.13803 10.7923 9.15449 10.7121 9.18637 10.6375C9.21826 10.5629 9.26494 10.4956 9.32357 10.4396V10.3842Z" fill="#828282"/>
<path d="M18.4989 14.7596C18.5848 14.8461 18.6869 14.9148 18.7993 14.9616C18.9118 15.0085 19.0325 15.0326 19.1543 15.0326C19.2762 15.0326 19.3968 15.0085 19.5093 14.9616C19.6218 14.9148 19.7239 14.8461 19.8097 14.7596L21.9789 12.5904C22.3866 12.1769 22.6351 11.6328 22.6808 11.0541C22.7265 10.4753 22.5664 9.89892 22.2287 9.42666C21.8911 8.95435 21.3976 8.61644 20.8351 8.47244C20.2726 8.32844 19.6774 8.38766 19.1543 8.63961C18.6305 8.37208 18.028 8.30155 17.4565 8.4408C16.885 8.58005 16.3825 8.91987 16.0404 9.39835C15.6982 9.87683 15.5393 10.4623 15.5924 11.0481C15.6455 11.6339 15.9071 12.1812 16.3297 12.5904L18.4989 14.7596ZM17.6313 10.3842C17.6873 10.3256 17.7546 10.2789 17.8292 10.247C17.9037 10.2151 17.984 10.1987 18.0651 10.1987C18.1462 10.1987 18.2265 10.2151 18.301 10.247C18.3756 10.2789 18.4429 10.3256 18.4989 10.3842C18.5848 10.4707 18.6869 10.5394 18.7993 10.5863C18.9118 10.6331 19.0325 10.6572 19.1543 10.6572C19.2762 10.6572 19.3968 10.6331 19.5093 10.5863C19.6218 10.5394 19.7239 10.4707 19.8097 10.3842C19.8664 10.3267 19.9339 10.2811 20.0084 10.2499C20.0829 10.2187 20.1628 10.2027 20.2435 10.2027C20.3243 10.2027 20.4042 10.2187 20.4787 10.2499C20.5532 10.2811 20.6207 10.3267 20.6774 10.3842C20.736 10.4402 20.7827 10.5075 20.8146 10.5821C20.8465 10.6567 20.8629 10.737 20.8629 10.8181C20.8629 10.8991 20.8465 10.9794 20.8146 11.054C20.7827 11.1286 20.736 11.1959 20.6774 11.2519L19.1543 12.8027L17.6313 11.3073C17.5726 11.2512 17.526 11.184 17.4941 11.1094C17.4621 11.0348 17.4457 10.9545 17.4457 10.8734C17.4457 10.7923 17.4621 10.7121 17.4941 10.6375C17.526 10.5629 17.5726 10.4956 17.6313 10.4396V10.3842Z" fill="#828282"/>
<path d="M21.4615 15.9232C21.2167 15.9232 20.9819 16.0204 20.8088 16.1935C20.6357 16.3666 20.5385 16.6014 20.5385 16.8462C20.5385 19.3939 18.0554 21.4616 15 21.4616C11.9446 21.4616 9.46153 19.3939 9.46153 16.8462C9.46153 16.6014 9.3643 16.3666 9.19116 16.1935C9.01806 16.0204 8.78326 15.9232 8.53846 15.9232C8.29366 15.9232 8.05885 16.0204 7.88575 16.1935C7.71264 16.3666 7.61539 16.6014 7.61539 16.8462C7.61539 20.4093 10.9292 23.3078 15 23.3078C19.0708 23.3078 22.3846 20.4093 22.3846 16.8462C22.3846 16.6014 22.2874 16.3666 22.1142 16.1935C21.9411 16.0204 21.7064 15.9232 21.4615 15.9232Z" fill="#828282"/>
</svg>
