<svg xmlns="http://www.w3.org/2000/svg" width="132" height="132" fill="none"><path d="M23.616 100c-8.746 0-15.86-7.116-15.86-15.863 0-6.25 3.635-11.665 8.9-14.248l3.526-9.117C8.782 62.43 0 72.272 0 84.127c0 13.023 10.595 23.617 23.616 23.617 8.796 0 16.483-4.834 20.547-11.984h-9.778a15.8 15.8 0 0 1-10.769 4.23z" fill="url(#A)"/><path d="M112.94 60.955l3.084 9.278c4.896 2.703 8.22 7.917 8.22 13.895 0 8.747-7.115 15.863-15.86 15.863s-15.862-7.116-15.862-15.863a15.76 15.76 0 0 1 1.425-6.557l-2.08-6.26-6.212 6.397a23.54 23.54 0 0 0-.887 6.421c0 13.022 10.594 23.616 23.616 23.616S132 97.15 132 84.128c0-11.465-8.21-21.045-19.06-23.174z" fill="url(#B)"/><path d="M104.704 85.35a3.88 3.88 0 0 0 3.679 2.655c.405 0 .818-.063 1.224-.198a3.88 3.88 0 0 0 2.456-4.903L95.142 31.99h11.234c.395 0 .715.32.715.716s-.32.715-.715.715a3.88 3.88 0 0 0-3.877 3.877 3.88 3.88 0 0 0 3.877 3.877 8.48 8.48 0 0 0 8.469-8.47 8.48 8.48 0 0 0-8.469-8.471H89.768c-1.246 0-2.416.598-3.144 1.61s-.928 2.31-.535 3.49L91.5 45.62H42.666l2.28-5.894h5.878a3.88 3.88 0 0 0 3.877-3.877 3.88 3.88 0 0 0-3.877-3.877H33.752a3.88 3.88 0 0 0-3.877 3.877 3.88 3.88 0 0 0 3.877 3.877h2.88l-3.105 8.027c-.003.006-.005.012-.01.018a3.92 3.92 0 0 0-.264.688L20 82.73c-.46 1.192-.304 2.536.42 3.6s1.918 1.685 3.197 1.685l39.59.001a3.86 3.86 0 0 0 2.272-.738l.124-.093c.156-.123.3-.256.43-.396L95.2 56.75l9.505 28.602zm-75.43-5.1L38.1 57.4l17.297 22.85H29.273zm34.297-2.064L44.788 53.374h42.88L63.57 78.187z" fill="url(#C)"/><defs><linearGradient id="A" x1="44.163" y1="84.074" x2="0" y2="84.074" gradientUnits="userSpaceOnUse"><stop stop-color="#7080fa"/><stop offset="1" stop-color="#9cfcf8"/></linearGradient><linearGradient id="B" x1="132" y1="84.171" x2="84.768" y2="84.171" gradientUnits="userSpaceOnUse"><stop stop-color="#7080fa"/><stop offset="1" stop-color="#9cfcf8"/></linearGradient><linearGradient id="C" x1="114.845" y1="55.877" x2="19.739" y2="55.877" gradientUnits="userSpaceOnUse"><stop stop-color="#7080fa"/><stop offset="1" stop-color="#9cfcf8"/></linearGradient></defs></svg>