<svg width="97" height="79" fill="none" xmlns="http://www.w3.org/2000/svg"><path fill-rule="evenodd" clip-rule="evenodd" d="M26.35 12.573c.31-.43.654-.958 1.093-1.67.246-.398 1.143-1.882 1.29-2.122C32.36 2.848 34.996.125 39.75.125h17.5c4.754 0 7.39 2.723 11.017 8.656.147.24 1.044 1.724 1.29 2.123a28.75 28.75 0 0 0 1.093 1.67c.205.284.383.51.53.676H83.5c7.249 0 13.125 5.876 13.125 13.125V65.75c0 7.249-5.876 13.125-13.125 13.125h-70C6.251 78.875.375 72.999.375 65.75V26.375c0-7.249 5.876-13.125 13.125-13.125h12.32c.146-.166.325-.392.53-.677zM13.5 22a4.375 4.375 0 0 0-4.375 4.375V65.75a4.375 4.375 0 0 0 4.375 4.375h70a4.375 4.375 0 0 0 4.375-4.375V26.375A4.375 4.375 0 0 0 83.5 22H70.375c-2.906 0-4.867-1.59-6.828-4.317a36.677 36.677 0 0 1-1.436-2.184c-.271-.44-1.182-1.947-1.31-2.155-1.978-3.236-3.172-4.469-3.551-4.469h-17.5c-.38 0-1.573 1.232-3.552 4.47-.127.207-1.038 1.714-1.31 2.154a36.677 36.677 0 0 1-1.435 2.184C31.492 20.409 29.53 22 26.625 22H13.5zm65.625 13.125a4.375 4.375 0 1 0 0-8.75 4.375 4.375 0 0 0 0 8.75zM48.5 65.75c-12.081 0-21.875-9.794-21.875-21.875S36.419 22 48.5 22s21.875 9.794 21.875 21.875S60.581 65.75 48.5 65.75zm0-8.75c7.249 0 13.125-5.876 13.125-13.125S55.749 30.75 48.5 30.75s-13.125 5.876-13.125 13.125S41.251 57 48.5 57z" fill="url(#paint0_linear)"/><defs><linearGradient id="paint0_linear" x1="94.926" y1="31.272" x2="-.77" y2="34.788" gradientUnits="userSpaceOnUse"><stop stop-color="#FB6D6C"/><stop offset="1" stop-color="#FFC683"/></linearGradient></defs></svg>