<svg width="27" height="27" viewBox="0 0 27 27" fill="none" xmlns="http://www.w3.org/2000/svg">
<path fill-rule="evenodd" clip-rule="evenodd" d="M7.16653 21.4C8.90075 22.7921 11.1031 23.625 13.5 23.625C14.8654 23.625 16.1677 23.3547 17.3563 22.8647C16.9524 20.4344 16.2126 17.9251 15.1357 15.3374C12.1123 16.2725 9.46626 18.2889 7.16653 21.4V21.4ZM5.56354 19.7878C8.04561 16.5238 10.9372 14.3474 14.2117 13.2704C14.0005 12.8281 13.7798 12.3836 13.5495 11.9368C12.968 12.0921 12.3652 12.2262 11.742 12.3402C9.23244 12.7989 7.05724 12.8883 3.5291 12.8379C3.48281 12.8372 3.43864 12.8366 3.39643 12.836C3.38222 13.0555 3.37501 13.2769 3.37501 13.5C3.37501 15.8759 4.19335 18.0606 5.56355 19.7878H5.56354ZM3.79901 10.5913C7.04811 10.6323 9.06748 10.5418 11.3373 10.1268C11.7146 10.0579 12.0822 9.98106 12.4398 9.89616C11.4225 8.11641 10.2576 6.30263 8.94499 4.45496C6.48588 5.69579 4.60181 7.90998 3.79902 10.5913L3.79901 10.5913ZM11.1325 3.65327C12.4494 5.53828 13.6197 7.39413 14.643 9.22094C16.7993 8.38706 18.4731 7.1478 19.6136 5.42837C17.9148 4.13967 15.7967 3.37497 13.5 3.37497C12.6847 3.37497 11.892 3.47132 11.1325 3.65327V3.65327ZM21.2637 7.00033C19.9058 8.90416 18.0285 10.282 15.7101 11.2202C15.9643 11.7216 16.2071 12.2207 16.4386 12.7175C18.673 12.3343 21.0662 12.4152 23.6111 12.9637C23.4929 10.6989 22.6304 8.63112 21.2637 7.00034L21.2637 7.00033ZM23.4762 15.239C21.3011 14.7336 19.2674 14.6036 17.3687 14.8519C18.3148 17.1865 19.0035 19.4707 19.4339 21.7048C21.5272 20.1883 23.0173 17.8903 23.4762 15.239V15.239ZM13.5 25.875C6.66548 25.875 1.125 20.3345 1.125 13.5C1.125 6.66544 6.66548 1.12497 13.5 1.12497C20.3345 1.12497 25.875 6.66544 25.875 13.5C25.875 20.3345 20.3345 25.875 13.5 25.875Z" fill="#828282"/>
</svg>
