<svg xmlns="http://www.w3.org/2000/svg" width="35" height="35" fill="none"><g filter="url(#A)" fill="#fff"><path d="M17 11.333h1.333c.736 0 1.333.597 1.333 1.333S19.07 14 18.333 14H17v1.333c0 .736-.597 1.333-1.333 1.333s-1.333-.597-1.333-1.333V14H13c-.736 0-1.333-.597-1.333-1.333s.597-1.333 1.333-1.333h1.333V10c0-.736.597-1.333 1.333-1.333S17 9.264 17 10v1.333z"/><path fill-rule="evenodd" d="M24.08 19.2l4.54 4.528c.52.523.515 1.367-.008 1.886l-.008.008c-.523.52-1.367.515-1.886-.008L22.2 21.08a10.56 10.56 0 0 1-6.533 2.253A10.67 10.67 0 0 1 5 12.667 10.67 10.67 0 0 1 15.667 2a10.67 10.67 0 0 1 10.667 10.667A10.56 10.56 0 0 1 24.08 19.2zM15.667 4.667a8 8 0 1 0 0 16 8 8 0 1 0 0-16z"/></g><defs><filter id="A" x="0" y="0" width="34.008" height="34.008" filterUnits="userSpaceOnUse" color-interpolation-filters="sRGB"><feFlood flood-opacity="0" result="A"/><feColorMatrix in="SourceAlpha" values="0 0 0 0 0 0 0 0 0 0 0 0 0 0 0 0 0 0 127 0"/><feOffset dy="3"/><feGaussianBlur stdDeviation="2.5"/><feColorMatrix values="0 0 0 0 0 0 0 0 0 0 0 0 0 0 0 0 0 0 0.25 0"/><feBlend in2="A"/><feBlend in="SourceGraphic"/></filter></defs></svg>