<svg xmlns="http://www.w3.org/2000/svg" width="33" height="33" fill="none"><g filter="url(#A)" fill="#161819"><path d="M16 11.333h1.333c.736 0 1.333.597 1.333 1.333S18.07 14 17.333 14H16v1.333c0 .736-.597 1.333-1.333 1.333s-1.333-.597-1.333-1.333V14H12c-.736 0-1.333-.597-1.333-1.333s.597-1.333 1.333-1.333h1.333V10c0-.736.597-1.333 1.333-1.333S16 9.264 16 10v1.333z"/><path fill-rule="evenodd" d="M23.08 19.2l4.54 4.528c.52.523.515 1.367-.008 1.886l-.008.008c-.523.52-1.367.515-1.886-.008L21.2 21.08a10.56 10.56 0 0 1-6.533 2.253A10.67 10.67 0 0 1 4 12.667 10.67 10.67 0 0 1 14.667 2a10.67 10.67 0 0 1 10.667 10.667A10.56 10.56 0 0 1 23.08 19.2zM14.667 4.667a8 8 0 1 0 0 16 8 8 0 1 0 0-16z"/></g><defs><filter id="A" x="0" y="0" width="32.008" height="32.008" filterUnits="userSpaceOnUse" color-interpolation-filters="sRGB"><feFlood flood-opacity="0" result="A"/><feColorMatrix in="SourceAlpha" values="0 0 0 0 0 0 0 0 0 0 0 0 0 0 0 0 0 0 127 0"/><feOffset dy="2"/><feGaussianBlur stdDeviation="2"/><feColorMatrix values="0 0 0 0 1 0 0 0 0 1 0 0 0 0 1 0 0 0 0.25 0"/><feBlend in2="A"/><feBlend in="SourceGraphic"/></filter></defs></svg>