<svg width="32" height="32" viewBox="0 0 32 32" fill="none" xmlns="http://www.w3.org/2000/svg">
<g filter="url(#filter0_d)">
<path d="M26.6386 21.9036L22.4844 17.7616C23.8247 16.054 24.552 13.9454 24.5493 11.7746C24.5493 6.37623 20.173 1.99998 14.7746 1.99998C9.37626 1.99998 5.00001 6.37623 5.00001 11.7746C5.00001 17.173 9.37626 21.5492 14.7746 21.5492C16.9454 21.5519 19.054 20.8247 20.7616 19.4843L24.9036 23.6386C25.3788 24.1177 26.1524 24.1208 26.6315 23.6456C26.6339 23.6433 26.6362 23.6409 26.6386 23.6386C27.1177 23.1634 27.1209 22.3898 26.6457 21.9107C26.6433 21.9083 26.641 21.9059 26.6386 21.9036ZM18.2183 12.9964H15.9965V15.2183C15.9965 15.8931 15.4494 16.4401 14.7746 16.4401C14.0998 16.4401 13.5528 15.8931 13.5528 15.2183V12.9964H11.331C10.6562 12.9964 10.1092 12.4494 10.1092 11.7746C10.1092 11.0998 10.6562 10.5528 11.331 10.5528H13.5528V8.33095C13.5528 7.65615 14.0998 7.10912 14.7746 7.10912C15.4494 7.10912 15.9965 7.65615 15.9965 8.33095V10.5528H18.2183C18.8931 10.5528 19.4401 11.0998 19.4401 11.7746C19.4401 12.4494 18.8931 12.9964 18.2183 12.9964Z" fill="white"/>
</g>
<defs>
<filter id="filter0_d" x="0" y="-2.28882e-05" width="32" height="32" filterUnits="userSpaceOnUse" color-interpolation-filters="sRGB">
<feFlood flood-opacity="0" result="BackgroundImageFix"/>
<feColorMatrix in="SourceAlpha" type="matrix" values="0 0 0 0 0 0 0 0 0 0 0 0 0 0 0 0 0 0 127 0"/>
<feOffset dy="3"/>
<feGaussianBlur stdDeviation="2.5"/>
<feColorMatrix type="matrix" values="0 0 0 0 0 0 0 0 0 0 0 0 0 0 0 0 0 0 0.25 0"/>
<feBlend mode="normal" in2="BackgroundImageFix" result="effect1_dropShadow"/>
<feBlend mode="normal" in="SourceGraphic" in2="effect1_dropShadow" result="shape"/>
</filter>
</defs>
</svg>
