<svg width="34" height="37" viewBox="0 0 34 37" fill="none" xmlns="http://www.w3.org/2000/svg">
<g filter="url(#filter0_d)">
<path d="M23.7154 11.5593C22.6968 10.2759 20.9628 9.90401 19.542 10.5697C18.7516 9.75686 17.6514 9.40451 16.5848 9.5526V5.73721C16.5848 3.82293 15.0311 2.26556 13.1213 2.26556C11.2116 2.26556 9.65782 3.82293 9.65782 5.73721V14.0862C8.61756 13.7023 7.39682 13.8223 6.41392 14.5459C4.88009 15.6752 4.5437 17.8276 5.65367 19.3726L11.3856 27.3523C12.0347 28.2557 13.0854 28.7952 14.1962 28.7952H23.5118C25.1212 28.7952 26.5201 27.6811 26.885 26.1113L28.3182 19.9453C28.3781 19.6869 28.4084 19.4226 28.4085 19.1574V14.8049C28.4085 12.3777 25.9723 10.6974 23.7154 11.5593ZM9.23156 16.7582L10.6489 18.7313C11.1189 19.3855 12.1658 19.0571 12.1658 18.2503V5.73721C12.1658 4.4356 14.0767 4.43353 14.0767 5.73721V14.8049C14.0767 15.2628 14.451 15.634 14.9127 15.634H15.271C15.7327 15.634 16.107 15.2628 16.107 14.8049V12.9914C16.107 11.6898 18.0179 11.6877 18.0179 12.9914V14.8049C18.0179 15.2628 18.3921 15.634 18.8539 15.634H19.2123C19.674 15.634 20.0483 15.2628 20.0483 14.8049V13.7168C20.0483 12.4152 21.9592 12.4131 21.9592 13.7168V14.8049C21.9592 15.2628 22.3334 15.634 22.7952 15.634H23.1535C23.6152 15.634 23.9895 15.2628 23.9895 14.8049C23.9895 13.5033 25.9004 13.5013 25.9004 14.8049V19.1574C25.9004 19.2346 25.8915 19.3117 25.8741 19.3866L24.4409 25.5527C24.3375 25.9974 23.9555 26.308 23.5118 26.308H14.1962C13.8947 26.308 13.6077 26.1589 13.4283 25.9092L7.69569 17.9296C6.94296 16.8817 8.47914 15.7109 9.23156 16.7582Z" fill="#161819"/>
</g>
<defs>
<filter id="filter0_d" x="0" y="0.265564" width="33.4085" height="36.5296" filterUnits="userSpaceOnUse" color-interpolation-filters="sRGB">
<feFlood flood-opacity="0" result="BackgroundImageFix"/>
<feColorMatrix in="SourceAlpha" type="matrix" values="0 0 0 0 0 0 0 0 0 0 0 0 0 0 0 0 0 0 127 0"/>
<feOffset dy="3"/>
<feGaussianBlur stdDeviation="2.5"/>
<feColorMatrix type="matrix" values="0 0 0 0 0 0 0 0 0 0 0 0 0 0 0 0 0 0 0.25 0"/>
<feBlend mode="normal" in2="BackgroundImageFix" result="effect1_dropShadow"/>
<feBlend mode="normal" in="SourceGraphic" in2="effect1_dropShadow" result="shape"/>
</filter>
</defs>
</svg>
