<svg xmlns="http://www.w3.org/2000/svg" width="34" height="37" fill="none"><g filter="url(#A)"><path d="M23.715 11.294c-1.02-1.283-2.753-1.655-4.173-1a3.45 3.45 0 0 0-2.957-1.017V5.472C16.585 3.557 15.03 2 13.12 2S9.658 3.557 9.658 5.472v8.35c-1.04-.384-2.26-.264-3.244.46-1.534 1.13-1.87 3.282-.76 4.827l5.732 7.98a3.47 3.47 0 0 0 2.811 1.443h9.316c1.61 0 3.008-1.114 3.373-2.684l1.433-6.166c.06-.258.1-.523.1-.788V14.54c0-2.427-2.436-4.108-4.693-3.246zm-14.484 5.2l1.417 1.973c.47.654 1.517.326 1.517-.48V5.472c0-1.302 1.91-1.304 1.91 0v9.068c0 .458.374.83.836.83h.358c.462 0 .836-.37.836-.83v-1.814c0-1.302 1.91-1.304 1.91 0v1.814c0 .458.374.83.836.83h.358c.462 0 .836-.37.836-.83V13.45c0-1.302 1.91-1.304 1.91 0v1.088c0 .458.374.83.836.83h.358c.462 0 .836-.37.836-.83 0-1.302 1.91-1.304 1.91 0v4.352c0 .077-.01.154-.026.23l-1.433 6.166c-.103.445-.485.755-.93.755h-9.316a.95.95 0 0 1-.768-.399l-5.733-7.98c-.753-1.048.783-2.22 1.536-1.17z" fill="#fff"/></g><defs><filter id="A" x="0" y="0" width="33.409" height="36.53" filterUnits="userSpaceOnUse" color-interpolation-filters="sRGB"><feFlood flood-opacity="0" result="A"/><feColorMatrix in="SourceAlpha" values="0 0 0 0 0 0 0 0 0 0 0 0 0 0 0 0 0 0 127 0"/><feOffset dy="3"/><feGaussianBlur stdDeviation="2.5"/><feColorMatrix values="0 0 0 0 0 0 0 0 0 0 0 0 0 0 0 0 0 0 0.25 0"/><feBlend in2="A"/><feBlend in="SourceGraphic"/></filter></defs></svg>