<svg xmlns="http://www.w3.org/2000/svg" width="89" height="89" fill="none"><path fill-rule="evenodd" d="M25.958 3.708h37.083a7.42 7.42 0 0 1 7.417 7.417v66.75a7.42 7.42 0 0 1-7.417 7.417H25.958a7.42 7.42 0 0 1-7.417-7.417v-66.75a7.42 7.42 0 0 1 7.417-7.417zm11.125 7.417H25.958v66.75h37.083v-66.75H51.917a3.71 3.71 0 0 1-3.708 3.708h-7.417a3.71 3.71 0 0 1-3.708-3.708z" fill="url(#A)"/><defs><linearGradient id="A" x1="69.542" y1="35.976" x2="17.874" y2="36.965" gradientUnits="userSpaceOnUse"><stop stop-color="#fb8180"/><stop offset="1" stop-color="#fdb86d"/></linearGradient></defs></svg>